<svg width="240" height="50" viewBox="0 0 240 50" fill="none" xmlns="http://www.w3.org/2000/svg">
<mask id="mask0_1_3" style="mask-type:alpha" maskUnits="userSpaceOnUse" x="0" y="0" width="42" height="43">
<path d="M0 0.333679H41.3482V42.6007H0V0.333679Z" fill="white"/>
</mask>
<g mask="url(#mask0_1_3)">
<path fill-rule="evenodd" clip-rule="evenodd" d="M41.3482 21.467C41.3482 9.79562 32.0922 0.333618 20.6742 0.333618C9.25598 0.333618 0 9.79562 0 21.467C0 33.139 9.25598 42.601 20.6742 42.601C32.0922 42.601 41.3482 33.139 41.3482 21.467Z" fill="#005039"/>
</g>
<path fill-rule="evenodd" clip-rule="evenodd" d="M63.6547 15.5771L60.9952 22.8258H66.3143L63.6547 15.5771ZM59.3021 27.4431L57.9423 31.1958H52.5016L61.2368 9.25909H66.1333L74.8379 31.1958H69.3968L68.0074 27.4431H59.3021Z" fill="#005039"/>
<path fill-rule="evenodd" clip-rule="evenodd" d="M86.8385 20.7217C84.4502 20.8144 82.9391 21.4637 81.7907 22.6067V31.1957H76.8641V16.211H81.7907V17.8174C83.0911 16.6744 84.6622 15.9634 86.8385 15.9634V20.7217Z" fill="#005039"/>
<path fill-rule="evenodd" clip-rule="evenodd" d="M99.4124 23.7187C99.4124 21.7723 98.083 20.1963 96.1173 20.1963C94.093 20.1963 92.7932 21.7723 92.7932 23.7187C92.7932 25.7273 94.093 27.334 96.1173 27.334C98.083 27.334 99.4124 25.7273 99.4124 23.7187ZM104.037 23.6883C104.037 28.2603 100.742 31.659 96.1173 31.659C91.4637 31.659 88.1383 28.2603 88.1383 23.6883C88.1383 19.177 91.4637 15.8713 96.1173 15.8713C100.742 15.8713 104.037 19.177 104.037 23.6883Z" fill="#005039"/>
<path fill-rule="evenodd" clip-rule="evenodd" d="M121.569 31.1957H116.673V30.2074C115.493 31.1344 114.224 31.6591 112.653 31.6591C108.935 31.6591 106.396 29.0331 106.396 24.7691V16.2111H111.292V23.9967C111.292 26.1287 112.38 27.1484 113.982 27.1484C114.889 27.1484 115.826 26.6231 116.673 25.6651V16.2111H121.569V31.1957Z" fill="#005039"/>
<path fill-rule="evenodd" clip-rule="evenodd" d="M140.067 22.6373V31.1953H135.171V23.4407C135.171 21.3087 134.113 20.2893 132.481 20.2893C131.604 20.2893 130.668 20.7833 129.821 21.772V31.1953H124.895V16.2107H129.821V17.1997C131 16.2723 132.27 15.7477 133.841 15.7477C137.528 15.7477 140.067 18.3733 140.067 22.6373Z" fill="#005039"/>
<path fill-rule="evenodd" clip-rule="evenodd" d="M153.7 26.0671V21.4018C152.763 20.3508 151.735 20.0111 150.678 20.0111C148.683 20.0111 147.202 21.6795 147.202 23.7185C147.202 25.8195 148.683 27.4571 150.678 27.4571C151.735 27.4571 152.763 27.1488 153.7 26.0671ZM158.596 31.1955H153.7V30.4231C152.612 31.1341 151.312 31.5668 149.68 31.5668C145.721 31.5668 142.396 28.1985 142.396 23.7185C142.396 19.2698 145.721 15.9328 149.68 15.9328C151.312 15.9328 152.612 16.3655 153.7 17.0761V9.25879H158.596V31.1955Z" fill="#005039"/>
<path fill-rule="evenodd" clip-rule="evenodd" d="M177.095 22.6373V31.1953H172.198V23.4407C172.198 21.3087 171.14 20.2893 169.508 20.2893C168.632 20.2893 167.695 20.7833 166.849 21.772V31.1953H161.922V9.25867H166.849V17.1997C168.027 16.2723 169.297 15.7477 170.868 15.7477C174.556 15.7477 177.095 18.3733 177.095 22.6373Z" fill="#E8B000"/>
<path fill-rule="evenodd" clip-rule="evenodd" d="M190.697 23.7187C190.697 21.7723 189.368 20.1963 187.403 20.1963C185.378 20.1963 184.078 21.7723 184.078 23.7187C184.078 25.7273 185.378 27.334 187.403 27.334C189.368 27.334 190.697 25.7273 190.697 23.7187ZM195.322 23.6883C195.322 28.2603 192.027 31.659 187.403 31.659C182.748 31.659 179.424 28.2603 179.424 23.6883C179.424 19.177 182.748 15.8713 187.403 15.8713C192.027 15.8713 195.322 19.177 195.322 23.6883Z" fill="#E8B000"/>
<path fill-rule="evenodd" clip-rule="evenodd" d="M222.072 22.6373V31.1953H217.176V23.4407C217.176 21.3087 216.148 20.2893 214.546 20.2893C213.79 20.2893 213.034 20.6287 212.309 21.5253C212.339 21.896 212.37 22.2667 212.37 22.6373V31.1953H207.473V23.4407C207.473 21.3087 206.446 20.2893 204.844 20.2893C204.118 20.2893 203.363 20.66 202.668 21.5867V31.1953H197.741V16.2107H202.668V17.0763C203.635 16.2107 204.662 15.7477 206.264 15.7477C208.108 15.7477 209.68 16.4577 210.798 17.7863C212.339 16.3653 213.82 15.7477 215.996 15.7477C219.503 15.7477 222.072 18.3733 222.072 22.6373Z" fill="#E8B000"/>
<path fill-rule="evenodd" clip-rule="evenodd" d="M229.237 22.2358H235.191C234.919 20.5978 233.862 19.7331 232.29 19.7331C230.628 19.7331 229.6 20.7214 229.237 22.2358ZM239.695 25.1708H229.268C229.66 26.5304 230.688 27.5808 232.562 27.5808C233.59 27.5808 234.375 27.1791 234.798 26.4998H239.665C238.939 29.5894 236.128 31.5358 232.501 31.5358C227.696 31.5358 224.492 28.2608 224.492 23.6881C224.492 19.1464 227.605 15.8711 232.32 15.8711C236.551 15.8711 239.786 18.8681 239.786 23.3794C239.786 23.9661 239.786 24.5838 239.695 25.1708Z" fill="#E8B000"/>
<path fill-rule="evenodd" clip-rule="evenodd" d="M31.9811 24.143C31.9798 24.0427 31.9706 23.942 31.9501 23.841C31.9465 23.825 31.9406 23.81 31.9374 23.7937C31.9191 23.7167 31.8947 23.641 31.8643 23.5654C31.8503 23.5287 31.8347 23.4937 31.818 23.4584C31.7936 23.4084 31.7655 23.3594 31.7359 23.3104C31.7124 23.272 31.6909 23.232 31.6644 23.1957C31.6635 23.194 31.6628 23.1924 31.6612 23.1897L22.0967 9.9797C21.4025 9.0197 19.9455 9.0197 19.2513 9.9797L9.68684 23.1897C9.68586 23.1924 9.68456 23.194 9.68325 23.1957C9.65717 23.232 9.63564 23.272 9.61217 23.3104C9.58249 23.3594 9.55445 23.4084 9.53032 23.4584C9.51336 23.4937 9.49836 23.5287 9.48369 23.5654C9.45336 23.641 9.42891 23.7167 9.4113 23.7937C9.40706 23.81 9.40151 23.825 9.39858 23.841C9.37738 23.942 9.36858 24.0427 9.36695 24.143C9.36695 24.1537 9.36401 24.1634 9.36401 24.174V29.4934C9.36401 30.434 10.144 31.1964 11.1063 31.1964H30.2417C31.204 31.1964 31.984 30.434 31.984 29.4934V24.174C31.984 24.1634 31.9811 24.1537 31.9811 24.143Z" fill="#E8B000"/>
<path fill-rule="evenodd" clip-rule="evenodd" d="M98.0094 41.3811C98.1421 41.2804 98.284 41.2301 98.4353 41.2301C98.6476 41.2301 98.8272 41.2961 98.975 41.4278C99.123 41.5591 99.1964 41.7641 99.1964 42.0428V48.5344C99.1964 48.7431 99.1302 48.9141 98.9975 49.0451C98.8651 49.1768 98.6929 49.2424 98.4806 49.2424C98.2762 49.2424 98.1056 49.1768 97.9693 49.0451C97.833 48.9141 97.7648 48.7431 97.7648 48.5344V44.1214L95.8908 47.6171C95.8077 47.7794 95.7167 47.9014 95.6182 47.9824C95.5194 48.0641 95.3945 48.1048 95.2432 48.1048C94.9931 48.1048 94.7851 47.9381 94.6184 47.6054L92.8008 44.1681V48.5344C92.8008 48.7431 92.7346 48.9141 92.6019 49.0451C92.4695 49.1768 92.297 49.2424 92.0851 49.2424C91.8806 49.2424 91.7101 49.1768 91.5738 49.0451C91.4378 48.9141 91.3696 48.7431 91.3696 48.5344V42.0428C91.3696 41.7874 91.4433 41.5881 91.591 41.4448C91.7388 41.3018 91.9298 41.2301 92.1646 41.2301C92.3541 41.2301 92.5093 41.2844 92.6306 41.3928C92.7516 41.5011 92.8729 41.6714 92.9942 41.9034L95.2885 46.1188L97.6175 41.9034C97.7463 41.6558 97.8767 41.4821 98.0094 41.3811Z" fill="#005039"/>
<path fill-rule="evenodd" clip-rule="evenodd" d="M102.439 44.8476C102.189 45.0679 102.026 45.3799 101.95 45.7819H104.62C104.627 45.6353 104.605 45.4859 104.552 45.3349C104.499 45.1839 104.417 45.0469 104.307 44.9229C104.198 44.7993 104.063 44.7003 103.904 44.6266C103.745 44.5533 103.563 44.5166 103.359 44.5166C102.996 44.5166 102.689 44.6266 102.439 44.8476ZM102.445 47.6979C102.721 47.9456 103.067 48.0699 103.484 48.0699C103.643 48.0699 103.793 48.0523 103.933 48.0176C104.073 47.9826 104.2 47.9379 104.313 47.8839C104.427 47.8296 104.527 47.7739 104.614 47.7156C104.701 47.6579 104.771 47.6096 104.824 47.5703C104.961 47.5086 105.063 47.4776 105.131 47.4776C105.306 47.4776 105.451 47.5436 105.569 47.6753C105.686 47.8063 105.745 47.9539 105.745 48.1166C105.745 48.2326 105.714 48.3386 105.654 48.4353C105.593 48.5323 105.525 48.6119 105.449 48.6739C105.23 48.8599 104.946 49.0199 104.597 49.1559C104.249 49.2913 103.84 49.3586 103.37 49.3586C102.954 49.3586 102.571 49.2836 102.223 49.1326C101.875 48.9816 101.576 48.7706 101.325 48.4996C101.076 48.2286 100.881 47.9073 100.741 47.5353C100.601 47.1643 100.53 46.7576 100.53 46.3166C100.53 45.8903 100.602 45.4883 100.746 45.1089C100.89 44.7293 101.089 44.4006 101.343 44.1213C101.596 43.8426 101.897 43.6226 102.246 43.4596C102.594 43.2973 102.969 43.2159 103.37 43.2159C103.764 43.2159 104.122 43.2873 104.444 43.4306C104.766 43.5739 105.04 43.7636 105.267 43.9996C105.495 44.2356 105.671 44.5089 105.795 44.8186C105.921 45.1279 105.983 45.4493 105.983 45.7819C105.983 46.0296 105.943 46.2333 105.864 46.3916C105.784 46.5503 105.616 46.6303 105.358 46.6303H101.939C101.999 47.0943 102.168 47.4503 102.445 47.6979Z" fill="#005039"/>
<path fill-rule="evenodd" clip-rule="evenodd" d="M107.386 43.5349C107.515 43.3996 107.681 43.3322 107.886 43.3322C108.09 43.3322 108.257 43.3996 108.385 43.5349C108.514 43.6709 108.578 43.8352 108.578 44.0286V47.4076C108.578 47.5629 108.599 47.6922 108.641 47.7972C108.683 47.9016 108.76 47.9539 108.874 47.9539C109.003 47.9539 109.093 48.0116 109.146 48.1276C109.2 48.2442 109.226 48.3679 109.226 48.4996C109.226 48.7239 109.16 48.9039 109.027 49.0392C108.895 49.1749 108.696 49.2426 108.431 49.2426C108.045 49.2426 107.742 49.1092 107.522 48.8422C107.302 48.5752 107.192 48.1276 107.192 47.5009V44.0286C107.192 43.8352 107.257 43.6709 107.386 43.5349ZM108.442 41.4046C108.586 41.5362 108.658 41.7256 108.658 41.9732C108.658 42.2362 108.586 42.4262 108.442 42.5422C108.298 42.6582 108.117 42.7166 107.897 42.7166C107.685 42.7166 107.509 42.6549 107.369 42.5306C107.229 42.4072 107.159 42.2212 107.159 41.9732C107.159 41.7332 107.227 41.5456 107.363 41.4102C107.499 41.2746 107.677 41.2069 107.897 41.2069C108.117 41.2069 108.298 41.2726 108.442 41.4046Z" fill="#005039"/>
<path fill-rule="evenodd" clip-rule="evenodd" d="M110.402 43.5292C110.516 43.3979 110.694 43.3322 110.936 43.3322C111.179 43.3322 111.353 43.3939 111.459 43.5179C111.565 43.6416 111.618 43.7809 111.618 43.9359V44.2956C111.762 43.9476 111.985 43.6802 112.288 43.4946C112.591 43.3089 112.936 43.2162 113.322 43.2162C113.981 43.2162 114.492 43.4266 114.855 43.8486C115.219 44.2706 115.401 44.8492 115.401 45.5849V48.5576C115.401 48.7512 115.334 48.9139 115.202 49.0449C115.069 49.1769 114.901 49.2426 114.696 49.2426C114.499 49.2426 114.335 49.1769 114.202 49.0449C114.07 48.9139 114.003 48.7512 114.003 48.5576V46.0839C114.003 45.5732 113.899 45.1839 113.691 44.9172C113.483 44.6499 113.193 44.5166 112.822 44.5166C112.443 44.5166 112.148 44.6542 111.936 44.9286C111.724 45.2039 111.618 45.6002 111.618 46.1189V48.5576C111.618 48.7512 111.553 48.9139 111.425 49.0449C111.296 49.1769 111.129 49.2426 110.925 49.2426C110.736 49.2426 110.573 49.1786 110.436 49.0509C110.3 48.9232 110.232 48.7589 110.232 48.5576V43.9476C110.232 43.8002 110.289 43.6609 110.402 43.5292Z" fill="#005039"/>
<path fill-rule="evenodd" clip-rule="evenodd" d="M123.302 45.0797C123.556 44.8127 123.684 44.4547 123.684 44.0053C123.684 43.5257 123.553 43.1597 123.292 42.9083C123.03 42.6563 122.65 42.5307 122.15 42.5307H120.798V45.48H122.172C122.672 45.48 123.049 45.3467 123.302 45.0797ZM123.439 41.4277C123.798 41.559 124.106 41.745 124.359 41.985C124.613 42.2253 124.808 42.5157 124.944 42.856C125.081 43.1963 125.149 43.5797 125.149 44.0053C125.149 44.439 125.079 44.828 124.939 45.1723C124.799 45.517 124.598 45.807 124.336 46.0437C124.075 46.28 123.763 46.4617 123.4 46.5893C123.036 46.717 122.627 46.781 122.172 46.781H120.798V48.511C120.798 48.728 120.732 48.904 120.599 49.0393C120.467 49.175 120.294 49.2427 120.082 49.2427C119.871 49.2427 119.698 49.175 119.565 49.0393C119.433 48.904 119.367 48.728 119.367 48.511V41.9617C119.367 41.745 119.433 41.569 119.565 41.4337C119.698 41.2977 119.871 41.2303 120.082 41.2303H122.218C122.672 41.2303 123.079 41.296 123.439 41.4277Z" fill="#005039"/>
<path fill-rule="evenodd" clip-rule="evenodd" d="M129.435 47.948C129.62 47.8663 129.781 47.7503 129.917 47.5997C130.054 47.4483 130.161 47.265 130.241 47.048C130.321 46.8313 130.36 46.5877 130.36 46.3163C130.36 45.7743 130.222 45.339 129.946 45.0097C129.67 44.681 129.304 44.5167 128.85 44.5167C128.38 44.5167 128.013 44.6827 127.747 45.0157C127.483 45.349 127.35 45.782 127.35 46.3163C127.35 46.5877 127.388 46.8297 127.463 47.0423C127.539 47.255 127.645 47.4387 127.782 47.5937C127.918 47.7487 128.077 47.8663 128.259 47.948C128.441 48.029 128.638 48.07 128.85 48.07C129.054 48.07 129.249 48.029 129.435 47.948ZM132.03 47.954C132.144 47.954 132.233 48.0023 132.297 48.099C132.362 48.1957 132.393 48.3327 132.393 48.511C132.393 48.999 132.102 49.2427 131.519 49.2427C131.14 49.2427 130.864 49.14 130.69 48.935C130.516 48.7297 130.406 48.492 130.36 48.2207L130.349 48.0813C130.167 48.492 129.911 48.8073 129.582 49.0277C129.253 49.2483 128.864 49.3587 128.418 49.3587C128.077 49.3587 127.756 49.287 127.452 49.144C127.149 49.0007 126.884 48.7973 126.657 48.5343C126.429 48.271 126.25 47.9517 126.118 47.576C125.985 47.2007 125.919 46.7813 125.919 46.3163C125.919 45.852 125.989 45.428 126.129 45.0447C126.269 44.6617 126.458 44.3347 126.697 44.0637C126.935 43.7927 127.212 43.5833 127.526 43.4363C127.84 43.2897 128.172 43.216 128.52 43.216C128.99 43.216 129.37 43.3223 129.662 43.535C129.954 43.7483 130.182 44.0363 130.349 44.4007V43.936C130.349 43.7577 130.413 43.6127 130.542 43.5007C130.671 43.388 130.841 43.332 131.054 43.332C131.266 43.332 131.434 43.388 131.559 43.5007C131.683 43.6127 131.746 43.7577 131.746 43.936V47.431C131.746 47.7797 131.841 47.954 132.03 47.954Z" fill="#005039"/>
<path fill-rule="evenodd" clip-rule="evenodd" d="M133.583 43.518C133.693 43.394 133.854 43.332 134.066 43.332C134.505 43.332 134.725 43.545 134.725 43.9703V44.3657C134.884 44.0403 135.106 43.7677 135.39 43.5467C135.674 43.3263 136.016 43.216 136.417 43.216C136.683 43.216 136.87 43.278 136.98 43.4013C137.09 43.5257 137.145 43.6727 137.145 43.8427C137.145 44.0363 137.092 44.1987 136.986 44.3307C136.879 44.4623 136.709 44.5283 136.474 44.5283C136.263 44.5283 136.056 44.565 135.856 44.6383C135.655 44.712 135.477 44.822 135.322 44.9697C135.166 45.1163 135.041 45.304 134.947 45.5323C134.852 45.761 134.805 46.0297 134.805 46.34V48.5577C134.805 48.7667 134.737 48.9333 134.6 49.0567C134.463 49.181 134.301 49.2427 134.112 49.2427C133.915 49.2427 133.75 49.181 133.617 49.0567C133.485 48.9333 133.419 48.7667 133.419 48.5577V43.9703C133.419 43.7927 133.473 43.6417 133.583 43.518Z" fill="#005039"/>
<path fill-rule="evenodd" clip-rule="evenodd" d="M140.718 48.0699C140.908 48.0699 141.048 48.0449 141.138 47.9939C141.229 47.9439 141.32 47.9189 141.411 47.9189C141.57 47.9189 141.691 47.9806 141.775 48.1049C141.858 48.2286 141.9 48.3486 141.9 48.4646C141.9 48.7512 141.805 48.9566 141.616 49.0799C141.457 49.1882 141.284 49.2619 141.099 49.3009C140.913 49.3396 140.699 49.3586 140.457 49.3586C140.124 49.3586 139.845 49.3026 139.622 49.1902C139.399 49.0782 139.221 48.9292 139.088 48.7432C138.956 48.5576 138.861 48.3426 138.804 48.0989C138.747 47.8546 138.719 47.6052 138.719 47.3499V44.5976H138.401C138.219 44.5976 138.07 44.5416 137.952 44.4292C137.834 44.3172 137.776 44.1639 137.776 43.9706C137.776 43.7769 137.836 43.6226 137.958 43.5066C138.079 43.3899 138.226 43.3322 138.401 43.3322H138.719V42.4956C138.719 42.3022 138.785 42.1396 138.918 42.0082C139.05 41.8766 139.218 41.8109 139.423 41.8109C139.62 41.8109 139.785 41.8766 139.917 42.0082C140.05 42.1396 140.116 42.3022 140.116 42.4956V43.3322H141.07C141.244 43.3322 141.392 43.3899 141.513 43.5066C141.635 43.6226 141.695 43.7769 141.695 43.9706C141.695 44.1639 141.635 44.3172 141.513 44.4292C141.392 44.5416 141.244 44.5976 141.07 44.5976H140.116V47.2449C140.116 47.7946 140.317 48.0699 140.718 48.0699Z" fill="#005039"/>
<path fill-rule="evenodd" clip-rule="evenodd" d="M143.013 43.5292C143.128 43.3979 143.306 43.3322 143.548 43.3322C143.79 43.3322 143.964 43.3939 144.07 43.5179C144.176 43.6416 144.229 43.7809 144.229 43.9359V44.2956C144.373 43.9476 144.596 43.6802 144.899 43.4946C145.202 43.3089 145.547 43.2162 145.933 43.2162C146.592 43.2162 147.103 43.4266 147.467 43.8486C147.83 44.2706 148.012 44.8492 148.012 45.5849V48.5576C148.012 48.7512 147.946 48.9139 147.813 49.0449C147.681 49.1769 147.512 49.2426 147.308 49.2426C147.111 49.2426 146.946 49.1769 146.813 49.0449C146.681 48.9139 146.615 48.7512 146.615 48.5576V46.0839C146.615 45.5732 146.511 45.1839 146.302 44.9172C146.094 44.6499 145.805 44.5166 145.433 44.5166C145.055 44.5166 144.759 44.6542 144.547 44.9286C144.335 45.2039 144.229 45.6002 144.229 46.1189V48.5576C144.229 48.7512 144.164 48.9139 144.036 49.0449C143.908 49.1769 143.74 49.2426 143.536 49.2426C143.347 49.2426 143.184 49.1786 143.047 49.0509C142.911 48.9232 142.844 48.7589 142.844 48.5576V43.9476C142.844 43.8002 142.9 43.6609 143.013 43.5292Z" fill="#005039"/>
<path fill-rule="evenodd" clip-rule="evenodd" d="M151.078 44.8476C150.828 45.0679 150.665 45.3799 150.589 45.7819H153.259C153.267 45.6353 153.244 45.4859 153.191 45.3349C153.138 45.1839 153.057 45.0469 152.946 44.9229C152.837 44.7993 152.703 44.7003 152.543 44.6266C152.384 44.5533 152.202 44.5166 151.998 44.5166C151.635 44.5166 151.328 44.6266 151.078 44.8476ZM151.084 47.6979C151.36 47.9456 151.706 48.0699 152.123 48.0699C152.282 48.0699 152.432 48.0523 152.572 48.0176C152.712 47.9826 152.839 47.9379 152.952 47.8839C153.066 47.8296 153.166 47.7739 153.253 47.7156C153.34 47.6579 153.41 47.6096 153.463 47.5703C153.599 47.5086 153.702 47.4776 153.77 47.4776C153.945 47.4776 154.09 47.5436 154.207 47.6753C154.325 47.8063 154.384 47.9539 154.384 48.1166C154.384 48.2326 154.354 48.3386 154.293 48.4353C154.232 48.5323 154.164 48.6119 154.088 48.6739C153.869 48.8599 153.585 49.0199 153.236 49.1559C152.888 49.2913 152.479 49.3586 152.009 49.3586C151.593 49.3586 151.21 49.2836 150.862 49.1326C150.514 48.9816 150.215 48.7706 149.964 48.4996C149.715 48.2286 149.52 47.9073 149.38 47.5353C149.24 47.1643 149.169 46.7576 149.169 46.3166C149.169 45.8903 149.241 45.4883 149.385 45.1089C149.529 44.7293 149.728 44.4006 149.982 44.1213C150.235 43.8426 150.536 43.6226 150.885 43.4596C151.233 43.2973 151.608 43.2159 152.009 43.2159C152.403 43.2159 152.761 43.2873 153.083 43.4306C153.405 43.5739 153.68 43.7636 153.906 43.9996C154.134 44.2356 154.31 44.5089 154.435 44.8186C154.56 45.1279 154.622 45.4493 154.622 45.7819C154.622 46.0296 154.582 46.2333 154.503 46.3916C154.424 46.5503 154.255 46.6303 153.997 46.6303H150.578C150.639 47.0943 150.807 47.4503 151.084 47.6979Z" fill="#005039"/>
<path fill-rule="evenodd" clip-rule="evenodd" d="M156.039 43.518C156.149 43.394 156.31 43.332 156.522 43.332C156.961 43.332 157.181 43.545 157.181 43.9703V44.3657C157.34 44.0403 157.561 43.7677 157.845 43.5467C158.129 43.3263 158.472 43.216 158.873 43.216C159.139 43.216 159.326 43.278 159.436 43.4013C159.546 43.5257 159.601 43.6727 159.601 43.8427C159.601 44.0363 159.548 44.1987 159.442 44.3307C159.335 44.4623 159.165 44.5283 158.93 44.5283C158.718 44.5283 158.512 44.565 158.311 44.6383C158.111 44.712 157.933 44.822 157.777 44.9697C157.622 45.1163 157.497 45.304 157.402 45.5323C157.308 45.761 157.26 46.0297 157.26 46.34V48.5577C157.26 48.7667 157.192 48.9333 157.055 49.0567C156.919 49.181 156.757 49.2427 156.568 49.2427C156.371 49.2427 156.206 49.181 156.073 49.0567C155.941 48.9333 155.875 48.7667 155.875 48.5577V43.9703C155.875 43.7927 155.929 43.6417 156.039 43.518Z" fill="#005039"/>
<path fill-rule="evenodd" clip-rule="evenodd" d="M163.061 43.518C163.171 43.394 163.331 43.332 163.543 43.332C163.983 43.332 164.203 43.545 164.203 43.9703V44.3657C164.362 44.0403 164.583 43.7677 164.867 43.5467C165.151 43.3263 165.494 43.216 165.895 43.216C166.16 43.216 166.348 43.278 166.458 43.4013C166.567 43.5257 166.622 43.6727 166.622 43.8427C166.622 44.0363 166.569 44.1987 166.463 44.3307C166.357 44.4623 166.187 44.5283 165.952 44.5283C165.74 44.5283 165.534 44.565 165.333 44.6383C165.132 44.712 164.955 44.822 164.799 44.9697C164.644 45.1163 164.519 45.304 164.424 45.5323C164.33 45.761 164.282 46.0297 164.282 46.34V48.5577C164.282 48.7667 164.214 48.9333 164.077 49.0567C163.941 49.181 163.778 49.2427 163.589 49.2427C163.393 49.2427 163.228 49.181 163.095 49.0567C162.963 48.9333 162.896 48.7667 162.896 48.5577V43.9703C162.896 43.7927 162.951 43.6417 163.061 43.518Z" fill="#005039"/>
<path fill-rule="evenodd" clip-rule="evenodd" d="M171.226 43.5292C171.358 43.3979 171.523 43.3322 171.72 43.3322C171.917 43.3322 172.082 43.3979 172.214 43.5292C172.347 43.6609 172.413 43.8275 172.413 44.0289V46.7462C172.413 47.1332 172.356 47.4852 172.242 47.8029C172.129 48.1199 171.966 48.3952 171.754 48.6272C171.542 48.8599 171.285 49.0392 170.982 49.1675C170.679 49.2952 170.334 49.3585 169.948 49.3585C169.569 49.3585 169.226 49.2952 168.92 49.1675C168.613 49.0392 168.354 48.8599 168.141 48.6272C167.93 48.3952 167.767 48.1199 167.653 47.8029C167.54 47.4852 167.483 47.1332 167.483 46.7462V44.0289C167.483 43.8275 167.549 43.6609 167.682 43.5292C167.814 43.3979 167.979 43.3322 168.175 43.3322C168.372 43.3322 168.539 43.3979 168.676 43.5292C168.812 43.6609 168.88 43.8275 168.88 44.0289V46.7812C168.88 47.1755 168.969 47.4892 169.147 47.7212C169.325 47.9539 169.592 48.0699 169.948 48.0699C170.311 48.0699 170.582 47.9539 170.76 47.7212C170.938 47.4892 171.027 47.1755 171.027 46.7812V44.0289C171.027 43.8275 171.094 43.6609 171.226 43.5292Z" fill="#005039"/>
<path fill-rule="evenodd" clip-rule="evenodd" d="M174.072 43.5292C174.186 43.3979 174.364 43.3322 174.607 43.3322C174.849 43.3322 175.023 43.3939 175.129 43.5179C175.235 43.6416 175.288 43.7809 175.288 43.9359V44.2956C175.432 43.9476 175.655 43.6802 175.958 43.4946C176.261 43.3089 176.606 43.2162 176.992 43.2162C177.651 43.2162 178.162 43.4266 178.526 43.8486C178.889 44.2706 179.071 44.8492 179.071 45.5849V48.5576C179.071 48.7512 179.005 48.9139 178.872 49.0449C178.74 49.1769 178.571 49.2426 178.366 49.2426C178.17 49.2426 178.005 49.1769 177.872 49.0449C177.74 48.9139 177.674 48.7512 177.674 48.5576V46.0839C177.674 45.5732 177.57 45.1839 177.361 44.9172C177.153 44.6499 176.864 44.5166 176.492 44.5166C176.114 44.5166 175.818 44.6542 175.606 44.9286C175.394 45.2039 175.288 45.6002 175.288 46.1189V48.5576C175.288 48.7512 175.223 48.9139 175.095 49.0449C174.966 49.1769 174.799 49.2426 174.595 49.2426C174.406 49.2426 174.242 49.1786 174.106 49.0509C173.97 48.9232 173.902 48.7589 173.902 48.5576V43.9476C173.902 43.8002 173.959 43.6609 174.072 43.5292Z" fill="#005039"/>
<path fill-rule="evenodd" clip-rule="evenodd" d="M183.764 47.948C183.949 47.8663 184.11 47.7503 184.246 47.5997C184.383 47.4483 184.491 47.2627 184.57 47.0423C184.65 46.8213 184.689 46.576 184.689 46.305C184.689 45.7627 184.547 45.3293 184.263 45.0043C183.979 44.679 183.618 44.5167 183.179 44.5167C182.709 44.5167 182.342 44.681 182.076 45.0097C181.812 45.339 181.679 45.7703 181.679 46.305C181.679 46.576 181.717 46.8197 181.793 47.0363C181.869 47.2533 181.975 47.437 182.111 47.5877C182.247 47.739 182.406 47.8573 182.588 47.9423C182.77 48.0273 182.967 48.07 183.179 48.07C183.383 48.07 183.578 48.029 183.764 47.948ZM184.883 41.4277C185.019 41.296 185.185 41.2303 185.383 41.2303C185.579 41.2303 185.744 41.296 185.877 41.4277C186.009 41.559 186.075 41.7257 186.075 41.927V48.4993C186.075 48.763 186.011 48.9523 185.882 49.0683C185.753 49.1843 185.579 49.2427 185.36 49.2427C185.132 49.2427 184.962 49.175 184.848 49.0393C184.735 48.904 184.678 48.743 184.678 48.5577V48.0813C184.489 48.4837 184.239 48.7973 183.928 49.0217C183.618 49.2467 183.239 49.3587 182.792 49.3587C182.452 49.3587 182.128 49.291 181.821 49.156C181.514 49.02 181.243 48.8207 181.009 48.5577C180.774 48.2943 180.589 47.975 180.453 47.5997C180.316 47.224 180.248 46.7963 180.248 46.3163C180.248 45.8363 180.318 45.405 180.458 45.0213C180.598 44.6383 180.79 44.313 181.032 44.046C181.274 43.7793 181.554 43.574 181.872 43.4307C182.19 43.2873 182.528 43.216 182.883 43.216C183.368 43.216 183.751 43.3263 184.031 43.5467C184.311 43.7673 184.527 44.052 184.678 44.4007V41.927C184.678 41.7257 184.746 41.559 184.883 41.4277Z" fill="#005039"/>
<path fill-rule="evenodd" clip-rule="evenodd" d="M193.716 43.5292C193.849 43.3979 194.013 43.3322 194.21 43.3322C194.407 43.3322 194.572 43.3979 194.704 43.5292C194.837 43.6609 194.903 43.8275 194.903 44.0289V46.7462C194.903 47.1332 194.846 47.4852 194.733 47.8029C194.619 48.1199 194.456 48.3952 194.244 48.6272C194.032 48.8599 193.775 49.0392 193.472 49.1675C193.169 49.2952 192.824 49.3585 192.438 49.3585C192.059 49.3585 191.717 49.2952 191.41 49.1675C191.103 49.0392 190.844 48.8599 190.631 48.6272C190.42 48.3952 190.257 48.1199 190.144 47.8029C190.03 47.4852 189.973 47.1332 189.973 46.7462V44.0289C189.973 43.8275 190.039 43.6609 190.172 43.5292C190.304 43.3979 190.469 43.3322 190.666 43.3322C190.863 43.3322 191.03 43.3979 191.166 43.5292C191.302 43.6609 191.37 43.8275 191.37 44.0289V46.7812C191.37 47.1755 191.459 47.4892 191.637 47.7212C191.815 47.9539 192.082 48.0699 192.438 48.0699C192.801 48.0699 193.072 47.9539 193.25 47.7212C193.429 47.4892 193.518 47.1755 193.518 46.7812V44.0289C193.518 43.8275 193.584 43.6609 193.716 43.5292Z" fill="#005039"/>
<path fill-rule="evenodd" clip-rule="evenodd" d="M196.585 43.5234C196.714 43.3957 196.892 43.3321 197.119 43.3321C197.309 43.3321 197.465 43.3864 197.591 43.4947C197.715 43.6031 197.778 43.7617 197.778 43.9704V44.2957C197.899 44.0021 198.081 43.7484 198.323 43.5351C198.566 43.3221 198.891 43.2161 199.301 43.2161C199.687 43.2161 200.016 43.3147 200.289 43.5124C200.561 43.7094 200.762 43.9937 200.891 44.3657C201.019 44.0094 201.203 43.7284 201.442 43.5234C201.68 43.3187 202 43.2161 202.401 43.2161C203.03 43.2161 203.515 43.4191 203.855 43.8254C204.196 44.2321 204.367 44.7994 204.367 45.5267V48.5577C204.367 48.7514 204.301 48.9141 204.168 49.0451C204.036 49.1767 203.867 49.2427 203.663 49.2427C203.458 49.2427 203.291 49.1767 203.163 49.0451C203.034 48.9141 202.969 48.7514 202.969 48.5577V45.6544C202.969 45.2907 202.884 45.0097 202.714 44.8127C202.543 44.6151 202.311 44.5167 202.015 44.5167C201.72 44.5167 201.489 44.6151 201.322 44.8127C201.156 45.0097 201.072 45.2907 201.072 45.6544V48.5461C201.072 48.7471 201.008 48.9141 200.879 49.0451C200.75 49.1767 200.584 49.2427 200.38 49.2427C200.175 49.2427 200.007 49.1767 199.874 49.0451C199.741 48.9141 199.675 48.7471 199.675 48.5461V45.6544C199.675 45.2907 199.592 45.0097 199.425 44.8127C199.259 44.6151 199.024 44.5167 198.721 44.5167C198.426 44.5167 198.195 44.6151 198.028 44.8127C197.861 45.0097 197.778 45.2907 197.778 45.6544V48.5577C197.778 48.7514 197.714 48.9141 197.585 49.0451C197.457 49.1767 197.289 49.2427 197.085 49.2427C196.889 49.2427 196.724 49.1784 196.591 49.0511C196.458 48.9234 196.392 48.7591 196.392 48.5577V44.0287C196.392 43.8194 196.456 43.6517 196.585 43.5234Z" fill="#005039"/>
<path fill-rule="evenodd" clip-rule="evenodd" d="M205.809 44.2665C205.915 44.0539 206.063 43.8702 206.252 43.7152C206.441 43.5605 206.669 43.4382 206.933 43.3495C207.199 43.2605 207.487 43.2162 207.797 43.2162C208.244 43.2162 208.611 43.2779 208.899 43.4015C209.186 43.5255 209.417 43.6765 209.592 43.8545C209.675 43.9395 209.734 44.0289 209.768 44.1212C209.802 44.2145 209.819 44.2999 209.819 44.3772C209.819 44.5092 209.771 44.6459 209.677 44.7892C209.582 44.9329 209.452 45.0045 209.285 45.0045C209.209 45.0045 209.132 44.9845 209.052 44.9462C208.973 44.9075 208.895 44.8612 208.819 44.8069C208.721 44.7369 208.592 44.6619 208.433 44.5802C208.274 44.4992 208.073 44.4582 207.831 44.4582C207.626 44.4582 207.451 44.4952 207.303 44.5685C207.155 44.6425 207.081 44.7679 207.081 44.9462C207.081 45.0929 207.153 45.2112 207.297 45.3005C207.441 45.3892 207.623 45.4742 207.843 45.5559C208.062 45.6369 208.297 45.7245 208.547 45.8169C208.796 45.9099 209.031 46.0239 209.251 46.1599C209.471 46.2949 209.652 46.4675 209.796 46.6762C209.94 46.8855 210.012 47.1449 210.012 47.4542C210.012 47.7252 209.958 47.9772 209.848 48.2092C209.738 48.4412 209.584 48.6429 209.388 48.8132C209.191 48.9832 208.954 49.1169 208.677 49.2135C208.401 49.3102 208.092 49.3585 207.752 49.3585C207.282 49.3585 206.884 49.2929 206.559 49.1619C206.233 49.0299 205.968 48.8515 205.763 48.6272C205.68 48.5422 205.624 48.4569 205.593 48.3719C205.563 48.2869 205.548 48.2015 205.548 48.1165C205.548 47.9689 205.603 47.8262 205.713 47.6862C205.822 47.5469 205.953 47.4775 206.104 47.4775C206.21 47.4775 206.305 47.4985 206.389 47.5412C206.472 47.5845 206.54 47.6245 206.593 47.6635C206.744 47.7872 206.913 47.8939 207.098 47.9825C207.284 48.0719 207.494 48.1165 207.729 48.1165C207.994 48.1165 208.203 48.0739 208.354 47.9882C208.505 47.9032 208.581 47.7639 208.581 47.5705C208.581 47.4075 208.509 47.2742 208.365 47.1699C208.221 47.0655 208.039 46.9722 207.82 46.8912C207.6 46.8095 207.365 46.7245 207.116 46.6359C206.866 46.5469 206.631 46.4325 206.411 46.2932C206.192 46.1539 206.01 45.9795 205.866 45.7705C205.722 45.5619 205.65 45.2905 205.65 44.9579C205.65 44.7102 205.703 44.4799 205.809 44.2665Z" fill="#005039"/>
<path fill-rule="evenodd" clip-rule="evenodd" d="M218.806 41.4337C218.934 41.2977 219.109 41.2303 219.329 41.2303C219.54 41.2303 219.713 41.2977 219.845 41.4337C219.977 41.569 220.044 41.745 220.044 41.9617V48.511C220.044 48.728 219.977 48.904 219.845 49.0393C219.713 49.175 219.54 49.2427 219.329 49.2427C219.109 49.2427 218.934 49.175 218.806 49.0393C218.677 48.904 218.613 48.728 218.613 48.511V45.7703H215.17V48.511C215.17 48.728 215.104 48.904 214.972 49.0393C214.839 49.175 214.667 49.2427 214.455 49.2427C214.243 49.2427 214.071 49.175 213.938 49.0393C213.805 48.904 213.739 48.728 213.739 48.511V41.9617C213.739 41.745 213.805 41.569 213.938 41.4337C214.071 41.2977 214.243 41.2303 214.455 41.2303C214.667 41.2303 214.839 41.2977 214.972 41.4337C215.104 41.569 215.17 41.745 215.17 41.9617V44.47H218.613V41.9617C218.613 41.745 218.677 41.569 218.806 41.4337Z" fill="#005039"/>
<path fill-rule="evenodd" clip-rule="evenodd" d="M224.906 47.948C225.092 47.8663 225.253 47.7503 225.389 47.5997C225.526 47.4483 225.633 47.265 225.713 47.048C225.793 46.8313 225.832 46.5877 225.832 46.3163C225.832 45.7743 225.694 45.339 225.417 45.0097C225.141 44.681 224.776 44.5167 224.322 44.5167C223.852 44.5167 223.484 44.6827 223.219 45.0157C222.955 45.349 222.822 45.782 222.822 46.3163C222.822 46.5877 222.86 46.8297 222.935 47.0423C223.011 47.255 223.117 47.4387 223.254 47.5937C223.39 47.7487 223.549 47.8663 223.731 47.948C223.913 48.029 224.11 48.07 224.322 48.07C224.526 48.07 224.721 48.029 224.906 47.948ZM227.502 47.954C227.616 47.954 227.705 48.0023 227.769 48.099C227.833 48.1957 227.865 48.3327 227.865 48.511C227.865 48.999 227.574 49.2427 226.991 49.2427C226.612 49.2427 226.336 49.14 226.162 48.935C225.987 48.7297 225.878 48.492 225.832 48.2207L225.821 48.0813C225.639 48.492 225.384 48.8073 225.054 49.0277C224.725 49.2483 224.336 49.3587 223.89 49.3587C223.549 49.3587 223.227 49.287 222.924 49.144C222.621 49.0007 222.356 48.7973 222.129 48.5343C221.901 48.271 221.722 47.9517 221.59 47.576C221.456 47.2007 221.391 46.7813 221.391 46.3163C221.391 45.852 221.461 45.428 221.601 45.0447C221.741 44.6617 221.93 44.3347 222.169 44.0637C222.407 43.7927 222.684 43.5833 222.998 43.4363C223.312 43.2897 223.644 43.216 223.992 43.216C224.461 43.216 224.842 43.3223 225.133 43.535C225.425 43.7483 225.654 44.0363 225.821 44.4007V43.936C225.821 43.7577 225.885 43.6127 226.014 43.5007C226.143 43.388 226.313 43.332 226.525 43.332C226.737 43.332 226.906 43.388 227.031 43.5007C227.155 43.6127 227.218 43.7577 227.218 43.936V47.431C227.218 47.7797 227.313 47.954 227.502 47.954Z" fill="#005039"/>
<path fill-rule="evenodd" clip-rule="evenodd" d="M232.509 43.5292C232.642 43.3979 232.806 43.3322 233.004 43.3322C233.2 43.3322 233.365 43.3979 233.497 43.5292C233.63 43.6609 233.697 43.8275 233.697 44.0289V46.7462C233.697 47.1332 233.639 47.4852 233.526 47.8029C233.413 48.1199 233.249 48.3952 233.038 48.6272C232.826 48.8599 232.568 49.0392 232.265 49.1675C231.962 49.2952 231.617 49.3585 231.231 49.3585C230.853 49.3585 230.51 49.2952 230.203 49.1675C229.896 49.0392 229.637 48.8599 229.425 48.6272C229.214 48.3952 229.05 48.1199 228.937 47.8029C228.823 47.4852 228.766 47.1332 228.766 46.7462V44.0289C228.766 43.8275 228.832 43.6609 228.965 43.5292C229.097 43.3979 229.262 43.3322 229.459 43.3322C229.656 43.3322 229.823 43.3979 229.959 43.5292C230.096 43.6609 230.163 43.8275 230.163 44.0289V46.7812C230.163 47.1755 230.252 47.4892 230.43 47.7212C230.609 47.9539 230.875 48.0699 231.231 48.0699C231.594 48.0699 231.865 47.9539 232.043 47.7212C232.222 47.4892 232.311 47.1755 232.311 46.7812V44.0289C232.311 43.8275 232.377 43.6609 232.509 43.5292Z" fill="#005039"/>
<path fill-rule="evenodd" clip-rule="evenodd" d="M235.093 44.2665C235.199 44.0539 235.347 43.8702 235.536 43.7152C235.726 43.5605 235.953 43.4382 236.218 43.3495C236.483 43.2605 236.771 43.2162 237.081 43.2162C237.528 43.2162 237.896 43.2779 238.183 43.4015C238.471 43.5255 238.702 43.6765 238.876 43.8545C238.959 43.9395 239.018 44.0289 239.052 44.1212C239.086 44.2145 239.103 44.2999 239.103 44.3772C239.103 44.5092 239.056 44.6459 238.961 44.7892C238.867 44.9329 238.736 45.0045 238.57 45.0045C238.494 45.0045 238.416 44.9845 238.337 44.9462C238.257 44.9075 238.18 44.8612 238.104 44.8069C238.006 44.7369 237.877 44.6619 237.717 44.5802C237.559 44.4992 237.358 44.4582 237.115 44.4582C236.911 44.4582 236.735 44.4952 236.587 44.5685C236.44 44.6425 236.366 44.7679 236.366 44.9462C236.366 45.0929 236.437 45.2112 236.581 45.3005C236.726 45.3892 236.907 45.4742 237.127 45.5559C237.346 45.6369 237.581 45.7245 237.831 45.8169C238.081 45.9099 238.316 46.0239 238.535 46.1599C238.755 46.2949 238.937 46.4675 239.081 46.6762C239.225 46.8855 239.297 47.1449 239.297 47.4542C239.297 47.7252 239.242 47.9772 239.132 48.2092C239.022 48.4412 238.869 48.6429 238.672 48.8132C238.475 48.9832 238.238 49.1169 237.962 49.2135C237.685 49.3102 237.377 49.3585 237.036 49.3585C236.566 49.3585 236.169 49.2929 235.843 49.1619C235.518 49.0299 235.252 48.8515 235.048 48.6272C234.964 48.5422 234.908 48.4569 234.877 48.3719C234.847 48.2869 234.832 48.2015 234.832 48.1165C234.832 47.9689 234.887 47.8262 234.997 47.6862C235.107 47.5469 235.237 47.4775 235.389 47.4775C235.495 47.4775 235.589 47.4985 235.673 47.5412C235.756 47.5845 235.824 47.6245 235.877 47.6635C236.029 47.7872 236.198 47.8939 236.382 47.9825C236.568 48.0719 236.778 48.1165 237.013 48.1165C237.279 48.1165 237.487 48.0739 237.638 47.9882C237.79 47.9032 237.865 47.7639 237.865 47.5705C237.865 47.4075 237.793 47.2742 237.649 47.1699C237.505 47.0655 237.324 46.9722 237.104 46.8912C236.884 46.8095 236.65 46.7245 236.4 46.6359C236.15 46.5469 235.915 46.4325 235.696 46.2932C235.476 46.1539 235.294 45.9795 235.151 45.7705C235.006 45.5619 234.934 45.2905 234.934 44.9579C234.934 44.7102 234.987 44.4799 235.093 44.2665Z" fill="#005039"/>
</svg>
